<?xml version="1.0" standalone="no"?>
<!DOCTYPE svg PUBLIC "-//W3C//DTD SVG 20010904//EN"
 "http://www.w3.org/TR/2001/REC-SVG-20010904/DTD/svg10.dtd">
<svg version="1.0" xmlns="http://www.w3.org/2000/svg"
 width="277.000000pt" height="277.000000pt" viewBox="0 0 277.000000 277.000000"
 preserveAspectRatio="xMidYMid meet">

<g transform="translate(0.000000,277.000000) scale(0.100000,-0.100000)"
fill="#8e69bf" stroke="none">
<path d="M1285 2624 c-172 -18 -317 -59 -465 -133 -430 -214 -703 -652 -703
-1126 1 -362 156 -704 431 -947 161 -143 395 -256 622 -299 83 -16 355 -16
440 0 413 78 773 355 936 721 154 344 154 716 -1 1057 -112 245 -337 474 -587
596 -107 53 -255 102 -347 116 -76 12 -269 21 -326 15z m320 -131 c33 -7 67
-16 75 -20 8 -3 20 -7 25 -8 111 -26 218 -76 335 -156 129 -88 234 -195 317
-322 54 -84 129 -247 138 -303 4 -21 13 -61 21 -89 23 -77 29 -314 10 -405
-32 -164 -35 -169 -75 -139 -35 26 -91 27 -203 3 -56 -12 -124 -18 -208 -18
-115 1 -131 3 -190 29 -89 38 -130 82 -130 137 0 95 88 213 229 308 88 60 121
105 123 167 1 61 -12 99 -46 131 -40 39 -138 77 -163 63 -10 -5 -39 -17 -65
-26 -62 -22 -104 -72 -120 -144 -6 -31 -23 -85 -35 -121 -13 -36 -25 -70 -26
-75 -3 -15 -46 -74 -76 -107 -13 -15 -42 -34 -63 -44 -38 -17 -41 -17 -104 6
-84 29 -123 24 -233 -33 -91 -48 -165 -73 -240 -83 -25 -3 -50 -8 -55 -11 -4
-3 -41 -9 -80 -14 -40 -4 -113 -19 -162 -33 -49 -14 -123 -28 -164 -31 -72 -6
-120 -24 -120 -45 0 -5 13 -16 29 -25 17 -8 33 -20 37 -27 4 -6 -9 -2 -29 11
-50 31 -61 21 -54 -52 l5 -61 -19 45 c-11 24 -29 98 -41 164 -64 374 58 755
324 1011 103 99 168 146 289 206 119 60 242 103 338 118 86 13 338 9 406 -7z
m280 -703 c-3 -5 -12 -10 -18 -10 -7 0 -6 4 3 10 19 12 23 12 15 0z m-730
-550 c-3 -5 -12 -10 -18 -10 -7 0 -6 4 3 10 19 12 23 12 15 0z m-212 -77 c-7
-2 -19 -2 -25 0 -7 3 -2 5 12 5 14 0 19 -2 13 -5z m-433 -159 c0 -9 -28 -3
-46 11 -17 13 -16 14 14 4 17 -6 32 -13 32 -15z m-99 -242 c13 -20 39 -57 59
-82 47 -58 61 -86 20 -40 -59 67 -159 233 -174 290 -3 14 12 -10 33 -53 22
-43 50 -94 62 -115z m352 181 c-7 -2 -19 -2 -25 0 -7 3 -2 5 12 5 14 0 19 -2
13 -5z m-208 -363 c10 -11 13 -20 7 -20 -6 0 -16 9 -22 20 -6 11 -9 20 -7 20
2 0 12 -9 22 -20z m75 -75 c13 -14 21 -25 18 -25 -2 0 -15 11 -28 25 -13 14
-21 25 -18 25 2 0 15 -11 28 -25z"/>
<path d="M1764 2241 c-87 -53 -59 -192 45 -221 41 -11 90 8 121 48 25 31 27
103 4 138 -35 53 -113 70 -170 35z m41 -51 c-3 -5 -13 -10 -21 -10 -8 0 -12 5
-9 10 3 6 13 10 21 10 8 0 12 -4 9 -10z"/>
<path d="M276 1075 c4 -8 7 -15 9 -15 2 0 5 7 9 15 3 9 0 15 -9 15 -9 0 -12
-6 -9 -15z"/>
</g>
</svg>
